<?xml version="1.0" encoding="UTF-8"?>
<svg id="book-mini" data-name="book-mini" xmlns="http://www.w3.org/2000/svg" viewBox="0 0 256 256">
    <path d="m256,255.97h-1.22c-84.53,0-169.05,0-253.58.03-1.02,0-1.2-.22-1.2-1.22C.03,169.87.03,84.96.03,0h255.97v255.97Zm-129.07-9.92s0-.03,0-.04c22.33,0,44.65,0,66.98,0,3.93,0,7.84.02,11.75-.73,5.6-1.07,10.97-2.83,15.93-5.55,2.11-1.16,4.11-2.7,6.05-4.24,4.82-3.81,8.76-8.37,11.84-13.6,2.74-4.65,4.79-9.66,5.77-15.04.69-3.76.99-7.53.97-11.35-.12-24.94.23-49.88-.17-74.82-.11-6.71.03-13.43.03-20.15,0-12.87-.03-25.73.02-38.6.02-3.68.31-7.32-.52-10.99-.7-3.08-1.22-6.18-2.18-9.22-1.48-4.65-3.83-8.82-6.63-12.74-3.68-5.13-8.32-9.27-13.72-12.53-1.87-1.13-3.68-2.46-5.7-3.21-3.06-1.14-6.05-2.55-9.33-3.1-3.62-.61-7.2-1.25-10.91-1.24-46.48.04-92.96.03-139.44.02-3.37,0-6.71.42-9.96,1.16-6.71,1.52-12.93,4.18-18.55,8.26-3.48,2.52-6.51,5.47-9.25,8.72-1.99,2.37-3.58,5.06-5.05,7.79-3.73,6.95-5.83,14.38-5.84,22.25-.07,46.44-.03,92.89-.04,139.33,0,2.61.17,5.2.49,7.8.96,7.87,3.93,14.96,8.48,21.35,5.36,7.53,12.34,13.17,20.92,16.71,5.71,2.36,11.61,3.78,17.85,3.77,23.41-.04,46.81-.01,70.22-.01Z"
          style="fill: #fefeff;"/>
    <path d="m126.93,246.05c-23.41,0-46.81-.02-70.22.01-6.24,0-12.14-1.42-17.85-3.77-8.58-3.54-15.55-9.18-20.92-16.71-4.55-6.4-7.52-13.48-8.48-21.35-.32-2.6-.49-5.18-.49-7.8.01-46.44-.02-92.89.04-139.33.01-7.87,2.12-15.3,5.84-22.25,1.47-2.74,3.06-5.42,5.05-7.79,2.73-3.25,5.77-6.2,9.25-8.72,5.62-4.08,11.84-6.74,18.55-8.26,3.26-.74,6.59-1.16,9.96-1.16,46.48,0,92.96.02,139.44-.02,3.7,0,7.29.63,10.91,1.24,3.29.55,6.27,1.96,9.33,3.1,2.02.75,3.83,2.08,5.7,3.21,5.4,3.26,10.05,7.4,13.72,12.53,2.8,3.91,5.15,8.08,6.63,12.74.97,3.04,1.49,6.14,2.18,9.22.83,3.67.53,7.31.52,10.99-.05,12.87-.01,25.73-.02,38.6,0,6.72-.14,13.43-.03,20.15.4,24.94.05,49.88.17,74.82.02,3.81-.28,7.59-.97,11.35-.98,5.38-3.03,10.39-5.77,15.04-3.08,5.23-7.03,9.79-11.84,13.6-1.95,1.54-3.94,3.09-6.05,4.24-4.96,2.72-10.33,4.48-15.93,5.55-3.91.74-7.82.73-11.75.73-22.33,0-44.65,0-66.98,0,0,.01,0,.03,0,.04Zm-65.77-85.29c0,.21,0,.42,0,.63-.12.13-.12.25,0,.38,0,.21,0,.41,0,.62-.12.12-.12.25,0,.38,0,.21,0,.42,0,.62-.11.12-.11.25,0,.37,0,.21,0,.42,0,.62-.11.12-.11.25,0,.37,0,.21,0,.42.01.63-.19.45-.19.9,0,1.35,0,.3-.02.6-.02.9-.16.61-.17,1.22.02,1.83.01.21.02.42.03.63l-.06.09.08.07c.03.54.09,1.07.08,1.61-.07,4.54.26,9.09-.27,13.62-.58.01-1.16.04-1.74.04-4.14,0-8.29-.01-12.43.01-1.94.01-2.24.33-2.27,2.23-.02,1.49-.04,2.98-.06,4.47-.02.02-.06.04-.06.06.01.05.04.1.06.15,0,.26,0,.53,0,.79-.02.02-.06.04-.06.06,0,.05.04.1.06.15,0,.26,0,.53,0,.79-.02.02-.06.04-.06.06,0,.05.04.1.06.15,0,.26,0,.53,0,.79-.02.02-.06.04-.06.06,0,.05.04.1.06.15,0,.26,0,.53,0,.79-.02.02-.06.04-.06.06,0,.05.04.1.06.15,0,.18,0,.36,0,.55-.17.15-.17.29,0,.44.07.85.11,1.7-.05,2.55-.06.06-.06.12,0,.18.08.94.34,1.77,1.37,2.09.56.66,1.08,1.36,1.69,1.97,7.91,7.94,15.83,15.86,23.74,23.79.32.32.61.68.93,1,2.87,2.86,5.23,6.2,8.47,8.71.75.58,1.65,1.16,2.04,2.26-.38.03-.59.06-.79.06-7.38,0-14.77.06-22.15-.05-1.54-.02-3.12-.13-4.67-.44-1.81-.37-3.68-.41-5.48-.96-1.57-.48-3.2-.74-4.77-1.27-3.14-1.05-6.05-2.56-8.9-4.22-4.5-2.62-8.32-6.1-12.03-9.7-.55-.54-1-1.21-1.57-1.75-.5-.48-1.08-.38-1.6-.04-.35.23-.68.6-.33,1.03.91,1.13,1.28,2.64,2.37,3.6,1.38,1.21,2.41,2.72,3.8,3.96,2.39,2.13,4.92,3.99,7.59,5.7,4.57,2.92,9.63,4.76,14.77,6.28,2.98.88,6.17,1.04,9.31,1.06,7.01.05,14.02.09,21.03-.03,2.06-.03,4.13-.12,6.19-.25,2.05.46,4.12.06,6.18.06,35.09,0,70.18,0,105.28,0,3.28,0,6.52-.45,9.69-1.21,5.14-1.23,9.84-3.46,14.45-6.08,4.47-2.54,8.02-5.93,11.25-9.77,1.38-1.64,2.64-3.4,3.61-5.34,1.33-1.57,2.06-3.49,2.92-5.31,2.31-4.86,3.7-10.01,4.16-15.35.32-3.7.24-7.45.28-11.17.04-3.1-.16-6.21-.18-9.31-.08-18.38-.05-36.76-.05-55.14,0-.29-.08-.62.02-.86.33-.8-.09-1.37-.56-1.88-1.13-1.25-2.2-2.54-3.4-3.74-12.13-12.04-24.2-24.15-36.28-36.23-.88-.88-1.51-1.99-2.51-2.74-1.87-1.4-3.37-3.19-5.01-4.82-.56-.56-1.04-1.17-1.84-1.39-.82-.7-1.63-1.42-2.48-2.11-1.3-1.05-2.9-1.12-4.44-1.14-6.42-.05-12.83-.02-19.25-.03-1.99,0-3.97-.03-5.96-.04.09-.53-.27-.83-.59-1.15-2.36-2.36-4.7-4.74-7.08-7.08-.63-.62-1.27-1.29-2.22-1.45-.39-.48-.76-.99-1.19-1.43-1.54-1.62-2.82-3.59-5.14-4.24-.83-.23-1.51-1.06-2.19-1.05-2.48.06-4.93-.32-7.41-.24-7.11.21-14.23-.08-21.35.21-4.98.2-9.78,4.14-11.08,8.84-.72,2.62-.4,5.24-.45,7.87,0,4.01-.01,8.01-.02,12.02,0,2.16-.01,4.32-.02,6.47,0,.62.03,1.25-.48,1.73-1.24-1.82-2.47-3.67-4.99-3.76-1.23-.04-2.47-.17-3.69-.18-8.62-.07-17.23-.06-25.85-.01-3.66.02-6.57,2.57-6.36,6.66.14,2.69.03,5.38.03,8.08-.19.41-.18.83-.05,1.25-.03.21-.05.43-.08.64-.21.91.16,1.79.14,2.7-.06,3.1-.04,6.21-.06,9.31-.12.25-.41.55-.35.75.41,1.45.09,2.94.23,4.39-.07.16-.09.31.03.46.02.33.07.66.07.99-.05,11.41.15,22.82-.14,34.23,0,.22-.01.44-.02.67.01.18.03.36.04.54,0,.5,0,1-.01,1.5-.01.89-.16,1.79.09,2.68Zm181.64-76.42c.35-.49.23-.95.23-1.37,0-7.06-.06-14.11.03-21.16.09-6.34-.82-12.48-2.95-18.47-2.36-6.65-5.99-12.54-10.84-17.6-3.27-3.41-7.17-6.07-11.44-8.17-3.16-1.56-6.34-2.97-9.77-3.85-4.01-1.03-8.07-1.78-12.21-1.78-44.15-.03-88.3-.02-132.45,0-2.27,0-4.54,0-6.82.18-4.78.36-9.39,1.34-13.85,3.05-7.52,2.87-14.09,7.13-19.28,13.34-6.43,7.68-9.99,16.57-10.95,26.51-.11,1.13-.01,2.29-.01,3.43.27-.79.17-1.58.29-2.35.84-5.61,2.68-10.89,5.35-15.89,3.65-6.81,8.76-12.38,14.98-16.83,8.15-5.84,17.44-8.43,27.4-8.44,42.99-.04,85.97-.02,128.96,0,2.85,0,5.71.01,8.57.16,4.81.25,9.39,1.25,13.83,3.06,5.93,2.42,11.27,5.78,15.98,10.09,4.41,4.04,7.76,8.85,10.3,14.31,2.97,6.38,4.35,13.04,4.41,20.01.06,6.81.01,13.61.03,20.42,0,.42-.12.88.23,1.38Z"
          style="fill: #7cb6d8;"/>
    <path d="m193.48,72.69c.8.21,1.28.82,1.84,1.39,1.64,1.64,3.14,3.42,5.01,4.82,1,.75,1.63,1.86,2.51,2.74,12.09,12.09,24.15,24.19,36.28,36.23,1.2,1.2,2.27,2.49,3.4,3.74.46.51.89,1.08.56,1.88-.1.25-.02.57-.02.86,0,18.38-.03,36.76.05,55.14.01,3.1.21,6.21.18,9.31-.04,3.73.04,7.47-.28,11.17-.47,5.34-1.85,10.49-4.16,15.35-.87,1.82-1.59,3.74-2.92,5.31-.12-.11-.29-.2-.34-.34-.44-1.12-.99-1-1.7-.23-.65.69-1.47,1.25-2.04,1.99-2.93,3.81-6.46,6.94-10.41,9.66-8.16,5.61-17.3,8.25-27.09,8.28-35.93.11-71.86.04-107.8.04-.41,0-.86.04-1.23-.1-.71-.27-1.25-.04-1.82.32.52,1.08,1.68,1.57,1.98,2.71-2.06.13-4.13.22-6.19.25-7.01.12-14.02.08-21.03.03-3.13-.02-6.32-.18-9.31-1.06-5.14-1.52-10.2-3.36-14.77-6.28-2.67-1.71-5.21-3.57-7.59-5.7-1.39-1.24-2.42-2.75-3.8-3.96-1.09-.96-1.46-2.48-2.37-3.6-.35-.43-.02-.8.33-1.03.52-.34,1.1-.44,1.6.04.57.54,1.02,1.22,1.57,1.75,3.71,3.6,7.53,7.08,12.03,9.7,2.85,1.66,5.75,3.17,8.9,4.22,1.57.52,3.2.79,4.77,1.27,1.81.55,3.67.59,5.48.96,1.55.31,3.13.42,4.67.44,7.38.11,14.77.05,22.15.05.2,0,.41-.03.79-.06-.39-1.11-1.29-1.68-2.04-2.26-3.24-2.51-5.6-5.85-8.47-8.71-.32-.32-.61-.68-.93-1-7.91-7.93-15.83-15.85-23.74-23.79-.61-.61-1.13-1.31-1.69-1.97.99-.02,1.99-.06,2.98-.06,53.05,0,106.11,0,159.16,0,2.23,0,2.48-.26,2.48-2.52,0-3.82,0-7.63,0-11.45,0-2.39-.31-2.68-2.76-2.69-4.56-.02-9.12-.04-13.69-.06-.02-5.48-.04-10.95-.06-16.43.39-4.22.32-8.44.01-12.66.02-.21.04-.41.04-.62,0-12.35,0-24.7-.02-37.05,0-6.71-.02-13.43-.03-20.14.38-4.22.32-8.44.01-12.67,0-3.25.07-6.51-.07-9.75-.05-1.14-.56-2.27-.42-3.46Z"
          style="fill: #5f8aa5;"/>
    <path d="m102.14,89.87c.5-.48.47-1.11.48-1.73,0-2.16.01-4.32.02-6.47.24,0,.49,0,.73.01.07.12.16.13.25.02.21,0,.41-.03.62-.03,13.98,0,27.96,0,41.95.02.41,0,.83.04,1.24.05.54.66,1.14.53,1.76.14,1.07-.07,2.14-.14,3.2-.21.03,1.32.05,2.65.08,3.97,0,4.31,0,8.62,0,12.92-.01.08-.03.16-.03.25,0,19.18,0,38.37.01,57.55,0,0-.04-.01-.04-.01-.99.01-1.99.04-2.98.04-15.59,0-31.18,0-46.76,0l-.07-.05c.01-.21.03-.41.03-.62,0-13.05,0-26.1.01-39.15,0-.56-.16-1.05-.29-1.57.18-.28.29-.57.29-.92,0-3.62,0-7.24,0-10.86,0-.41-.09-.73-.48-.91.44-.66.5-1.39.49-2.16-.03-2.34,0-4.69-.02-7.03-.01-1.1-.19-2.18-.47-3.24Z"
          style="fill: #495572;"/>
    <path d="m194.01,185.46c4.56.02,9.12.04,13.69.06,2.44,0,2.75.3,2.76,2.69,0,3.82,0,7.63,0,11.45,0,2.26-.25,2.52-2.48,2.52-53.05,0-106.11,0-159.16,0-.99,0-1.99.04-2.98.06-1.03-.32-1.29-1.14-1.37-2.09.06-.06.06-.12,0-.18.16-.85.12-1.7.05-2.55,0-.15,0-.29,0-.44v-.55c.04-.07.05-.14,0-.21v-.79c.04-.07.04-.14,0-.21,0-.26,0-.53,0-.79.04-.07.05-.14,0-.21,0-.26,0-.53,0-.79.04-.07.05-.14,0-.21,0-.26,0-.53,0-.79.04-.07.04-.14,0-.21.02-1.49.04-2.98.06-4.47.03-1.9.32-2.22,2.27-2.23,4.14-.02,8.29,0,12.43-.01.58,0,1.16-.02,1.74-.04l41.59-.02c.33.01.66.03.99.03,13.67,0,27.34,0,41.01,0,2.61,0,5.22-.02,7.83-.03.66.01,1.33.04,1.99.04,11.69,0,23.38,0,35.07,0,1.51,0,3.03.48,4.53-.06Z"
          style="fill: #e08d4b;"/>
    <path d="m102.33,114.99c.13.52.29,1.01.29,1.57-.02,13.05-.01,26.1-.01,39.15,0,.21-.02.41-.03.62-13.31,0-26.61.02-39.92.03-.53,0-1.08-.1-1.57.23-.01-.18-.03-.36-.04-.54.21-.22.22-.44.02-.67.29-11.41.09-22.82.14-34.23,0-.33-.04-.66-.07-.99.09-.05.26-.09.27-.15.03-.2-.15-.25-.3-.31-.14-1.46.18-2.94-.23-4.39-.06-.2.22-.5.35-.75.2.62.74.44,1.16.44,13.31,0,26.63,0,39.94-.01Z"
          style="fill: #c84655;"/>
    <path d="m102.65,69.64c.06-2.63-.27-5.25.45-7.87,1.3-4.7,6.1-8.64,11.08-8.84,7.12-.28,14.24,0,21.35-.21,2.48-.07,4.93.3,7.41.24.67-.02,1.36.82,2.19,1.05,2.32.65,3.6,2.62,5.14,4.24.43.45.79.95,1.19,1.43.33,1.68.75,3.35.85,5.07.09,1.55.33,3.11-.15,4.64-15.31.01-30.62.02-45.92.04-1.2,0-2.4-.06-3.59.2Z"
          style="fill: #495572;"/>
    <path d="m242.8,84.34c-.35-.5-.23-.96-.23-1.38-.01-6.81.03-13.61-.03-20.42-.06-6.97-1.44-13.64-4.41-20.01-2.54-5.45-5.9-10.27-10.3-14.31-4.7-4.31-10.05-7.67-15.98-10.09-4.44-1.81-9.02-2.81-13.83-3.06-2.86-.15-5.71-.16-8.57-.16-42.99-.02-85.97-.04-128.96,0-9.96,0-19.25,2.61-27.4,8.44-6.22,4.46-11.33,10.02-14.98,16.83-2.68,5-4.51,10.28-5.35,15.89-.11.76-.02,1.56-.29,2.35,0-1.14-.09-2.3.01-3.43.96-9.94,4.52-18.84,10.95-26.51,5.2-6.21,11.77-10.47,19.28-13.34,4.47-1.71,9.08-2.68,13.85-3.05,2.28-.17,4.55-.18,6.82-.18,44.15-.01,88.3-.02,132.45,0,4.14,0,8.2.75,12.21,1.78,3.42.88,6.61,2.3,9.77,3.85,4.27,2.11,8.17,4.77,11.44,8.17,4.85,5.06,8.48,10.95,10.84,17.6,2.13,5.98,3.03,12.12,2.95,18.47-.1,7.05-.02,14.11-.03,21.16,0,.42.12.88-.23,1.37Z"
          style="fill: #bcd9ea;"/>
    <path d="m102.6,185.47c-13.86,0-27.72.01-41.59.02.53-4.53.2-9.08.27-13.62,0-.54-.05-1.07-.08-1.61.03-.06.02-.11-.02-.15-.01-.21-.02-.42-.03-.63.04-.14.08-.29.12-.43,13.77.16,27.55-.2,41.32.19l.06.05c-.02,5.39-.03,10.79-.05,16.18Z"
          style="fill: #c84655;"/>
    <path d="m102.14,89.87c.27,1.06.46,2.15.47,3.24.03,2.34-.01,4.69.02,7.03.01.78-.05,1.5-.49,2.16-.32.39-.77.25-1.16.25-13.28,0-26.55,0-39.83,0,.03-.21.05-.43.08-.64.02-.42.03-.83.05-1.25,0-2.69.11-5.39-.03-8.08-.21-4.08,2.7-6.64,6.36-6.66,8.62-.05,17.23-.06,25.85.01,1.22.01,2.46.13,3.69.18,2.52.09,3.75,1.94,4.99,3.76Z"
          style="fill: #c84655;"/>
    <path d="m152.46,85.64c-.03-1.32-.05-2.65-.08-3.97.13-2.9-.22-5.83.56-8.68,1.34-2.53,3.47-3.65,6.3-3.56.7.02,1.41-.04,2.11-.06,1.99.01,3.97.04,5.96.04,6.42,0,12.83-.02,19.25.03,1.54.01,3.14.08,4.44,1.14.84.68,1.65,1.4,2.48,2.11-.14,1.19.37,2.32.42,3.46.15,3.24.06,6.5.07,9.75-10.45,0-20.9.02-31.34-.02-3.39-.01-6.79.25-10.16-.23Z"
          style="fill: #e0e2cc;"/>
    <path d="m152.95,72.98c-.79,2.86-.44,5.78-.56,8.68-1.07.07-2.14.14-3.2.21-.56-.38-1.17-.2-1.76-.14-.41-.02-.83-.05-1.24-.05-13.98,0-27.96-.01-41.95-.02-.21,0-.41.02-.62.03-.08,0-.17-.01-.25-.02-.24,0-.49,0-.73-.01,0-4.01.01-8.01.02-12.02,1.18-.26,2.39-.2,3.59-.2,15.31-.02,30.62-.03,45.92-.04.42.73.22,1.53.25,2.31.02.51,0,1,.54,1.27Z"
          style="fill: #76caa8;"/>
    <path d="m102.59,169.24c-13.77-.39-27.55-.03-41.32-.19-.04-.47-.09-.93-.13-1.4,0-.3.02-.6.02-.9.13-.45.13-.9,0-1.35,0-.21,0-.42-.01-.63,0-.12,0-.25,0-.37,0-.21,0-.42,0-.62,0-.12,0-.25,0-.37,0-.21,0-.42,0-.62,0-.13,0-.25,0-.38,0-.21,0-.41,0-.62,0-.13,0-.25,0-.38,0-.21,0-.42,0-.63.08-.9.24-1.8-.09-2.68,0-.5,0-1,.01-1.5.49-.32,1.04-.22,1.57-.23,13.31-.01,26.61-.02,39.92-.03l.07.05c-.02,4.28-.04,8.57-.06,12.85Z"
          style="fill: #e08d4b;"/>
    <path d="m61.15,102.55c13.28,0,26.55,0,39.83,0,.4,0,.84.14,1.16-.25.39.18.48.5.48.91,0,3.62,0,7.24,0,10.86,0,.35-.11.64-.29.92-13.31,0-26.63.01-39.94.01-.42,0-.95.18-1.16-.44.01-3.11,0-6.21.06-9.31.02-.91-.35-1.79-.14-2.7Z"
          style="fill: #e08d4b;"/>
    <path d="m85.47,242.96c-.29-1.14-1.45-1.64-1.98-2.71.56-.36,1.1-.58,1.82-.32.37.14.82.1,1.23.1,35.93,0,71.86.07,107.8-.04,9.78-.03,18.92-2.68,27.09-8.28,3.95-2.71,7.48-5.84,10.41-9.66.57-.75,1.39-1.3,2.04-1.99.72-.77,1.27-.89,1.7.23.05.14.22.23.34.34-.96,1.94-2.23,3.7-3.61,5.34-3.22,3.84-6.78,7.24-11.25,9.77-4.61,2.62-9.3,4.85-14.45,6.08-3.18.76-6.41,1.21-9.69,1.21-35.09,0-70.18,0-105.28,0-2.06,0-4.12.4-6.18-.06Z"
          style="fill: #4c6f84;"/>
    <path d="m152.95,72.98c-.55-.27-.53-.76-.54-1.27-.03-.77.18-1.57-.25-2.31.48-1.53.24-3.09.15-4.64-.1-1.72-.53-3.39-.85-5.07.95.15,1.59.83,2.22,1.45,2.38,2.34,4.73,4.72,7.08,7.08.32.32.68.62.59,1.15-.7.02-1.41.08-2.11.06-2.83-.09-4.96,1.03-6.3,3.56Z"
          style="fill: #5f8aa5;"/>
    <path d="m61.07,158.09c.33.88.17,1.78.09,2.68-.25-.89-.1-1.78-.09-2.68Z" style="fill: #76caa8;"/>
    <path d="m61.13,167.65c.04.47.09.93.13,1.4-.04.14-.08.29-.12.43-.18-.61-.18-1.22-.02-1.83Z" style="fill: #76caa8;"/>
    <path d="m61.16,165.39c.12.45.13.9,0,1.35-.19-.45-.19-.9,0-1.35Z" style="fill: #76caa8;"/>
    <path d="m61.27,100.66c-.02.42-.03.83-.05,1.25-.13-.42-.15-.84.05-1.25Z" style="fill: #e08d4b;"/>
    <path d="m61.11,119.71c.15.06.33.11.3.31-.01.06-.17.1-.27.15-.12-.15-.1-.3-.03-.46Z" style="fill: #5f8aa5;"/>
    <path d="m61.06,155.38c.2.23.19.45-.02.67,0-.22.01-.44.02-.67Z" style="fill: #5f8aa5;"/>
    <path d="m61.15,164.39c0,.12,0,.25,0,.37-.12-.12-.12-.25,0-.37Z" style="fill: #76caa8;"/>
    <path d="m61.14,163.39c0,.12,0,.25,0,.37-.11-.12-.11-.25,0-.37Z" style="fill: #76caa8;"/>
    <path d="m61.15,162.39c0,.13,0,.25,0,.38-.12-.13-.12-.25,0-.38Z" style="fill: #76caa8;"/>
    <path d="m61.16,161.4c0,.13,0,.25,0,.38-.12-.13-.12-.25,0-.38Z" style="fill: #76caa8;"/>
    <path d="m44.51,196.98c0,.15,0,.29,0,.44-.17-.15-.17-.3,0-.44Z" style="fill: #76caa8;"/>
    <path d="m61.18,170.1s.05.1.02.15l-.08-.07.06-.09Z" style="fill: #76caa8;"/>
    <path d="m44.51,192.24c.04.07.04.14,0,.21-.02-.05-.05-.1-.06-.15,0-.02.04-.04.06-.06Z" style="fill: #76caa8;"/>
    <path d="m44.51,193.23c.04.07.04.14,0,.21-.02-.05-.05-.1-.06-.15,0-.02.04-.04.06-.06Z" style="fill: #76caa8;"/>
    <path d="m44.51,194.23c.04.07.04.14,0,.21-.02-.05-.05-.1-.06-.15,0-.02.04-.04.06-.06Z" style="fill: #76caa8;"/>
    <path d="m44.51,195.23c.04.07.04.14,0,.21-.02-.05-.05-.1-.06-.15,0-.02.04-.04.06-.06Z" style="fill: #76caa8;"/>
    <path d="m44.51,196.22c.04.07.04.14,0,.21-.02-.05-.05-.1-.06-.15,0-.02.04-.04.06-.06Z" style="fill: #76caa8;"/>
    <path d="m44.46,199.97c.06.06.06.12,0,.18-.06-.06-.06-.12,0-.18Z" style="fill: #76caa8;"/>
    <path d="m152.44,156.36c0-19.18,0-38.37-.01-57.55,0-.08.02-.16.03-.25.79.07,1.53-.25,2.33-.25,11.86.03,23.73.02,35.59.02,1.2,0,2.4-.08,3.58.21.01,6.71.03,13.43.03,20.14.01,12.35.02,24.7.02,37.05,0,.21-.03.41-.04.62-.66,0-1.28.25-1.95.25-8.94-.02-17.88.02-26.82-.03-4.25-.02-8.51.28-12.76-.22Z"
          style="fill: #e0e2cc;"/>
    <path d="m194.01,185.46c-1.5.54-3.02.06-4.53.06-11.69,0-23.38,0-35.07,0-.66,0-1.33-.02-1.99-.04,0-5.39.02-10.79.02-16.18,2.22-.4,4.45-.23,6.68-.23,11.61-.02,23.21-.02,34.82-.03.02,5.48.04,10.95.06,16.43Z"
          style="fill: #e0e2cc;"/>
    <path d="m193.95,169.03c-11.61,0-23.21,0-34.82.03-2.23,0-4.47-.17-6.68.23-.03-.07-.06-.14-.08-.21,0-4.25.02-8.49.03-12.74,0,0,.04.01.04.01,4.24.5,8.5.2,12.76.22,8.94.05,17.88,0,26.82.03.68,0,1.29-.24,1.95-.25.3,4.22.37,8.44-.01,12.66Z"
          style="fill: #fefeff;"/>
    <path d="m193.96,98.56c-1.18-.29-2.38-.21-3.58-.21-11.86,0-23.73,0-35.59-.02-.8,0-1.54.31-2.33.25,0-4.31,0-8.62,0-12.92,3.38.48,6.78.21,10.16.23,10.45.04,20.9.02,31.34.02.31,4.22.36,8.44-.01,12.67Z"
          style="fill: #fefeff;"/>
    <path d="m152.4,156.35c0,4.25-.02,8.49-.03,12.74-.25,0-.5-.02-.75-.02-15.05,0-30.1.02-45.15.03-1.28,0-2.56-.11-3.82.19l-.06-.05c.02-4.28.04-8.57.06-12.85,15.59,0,31.18,0,46.76,0,.99,0,1.99-.03,2.98-.04Z"
          style="fill: #76caa8;"/>
    <path d="m147.42,81.74c.6-.06,1.2-.24,1.76.14-.62.39-1.22.52-1.76-.14Z" style="fill: #4c6f84;"/>
    <path d="m103.36,81.67c.08,0,.17.01.25.02-.09.12-.17.1-.25-.02Z" style="fill: #4c6f84;"/>
    <path d="m102.65,169.28c1.26-.31,2.55-.19,3.82-.19,15.05-.01,30.1-.02,45.15-.03.25,0,.5.02.75.02.02.07.05.14.08.21,0,5.39-.02,10.79-.02,16.18-2.61,0-5.22.02-7.83.03-13.67,0-27.34,0-41.01,0-.33,0-.66-.02-.99-.03.02-5.39.03-10.79.05-16.18Z"
          style="fill: #495572;"/>
</svg>