<?xml version="1.0" encoding="UTF-8"?>
<svg id="book" data-name="book" xmlns="http://www.w3.org/2000/svg" viewBox="0 0 392.7 98.02">
    <g>
        <path d="m98.02,98h-.47c-32.36,0-64.72,0-97.09.01-.39,0-.46-.08-.46-.47C.01,65.04.01,32.53.01,0h98v98Zm-49.38-3.83v-.38h25.5c1.5.31,3,.32,4.5.03,2.14-.41,4.2-1.08,6.1-2.12.81-.44,1.57-1.03,2.32-1.62,1.85-1.46,3.35-3.2,4.53-5.21,1.05-1.78,1.83-3.7,2.21-5.76.26-1.44.38-2.88.37-4.35-.05-9.55.09-19.1-.07-28.64-.04-2.57.01-5.14.01-7.71,0-4.93-.01-9.85,0-14.78,0-1.41.12-2.8-.2-4.21-.27-1.18-.47-2.37-.83-3.53-.57-1.78-1.47-3.38-2.54-4.88-1.41-1.96-3.19-3.55-5.25-4.8-.72-.43-1.41-.94-2.18-1.23-1.17-.44-2.32-.98-3.57-1.19-1.39-.23-2.76-.48-4.18-.47-17.79.02-35.59.01-53.38,0-1.29,0-2.57.16-3.81.44-2.57.58-4.95,1.6-7.1,3.16-1.33.96-2.49,2.09-3.54,3.34-.76.91-1.37,1.94-1.93,2.98-1.43,2.66-2.23,5.51-2.24,8.52-.03,17.78-.01,35.56-.02,53.34,0,1,.07,1.99.19,2.99.37,3.01,1.5,5.73,3.25,8.17,2.05,2.88,4.72,5.04,8.01,6.4,2.19.9,4.44,1.45,6.83,1.44,8.96-.02,17.92,0,26.88.05h.14Z"
              style="fill: #fefeff;"/>
        <path d="m48.49,94.18c-8.96-.06-17.92-.07-26.88-.05-2.39,0-4.65-.54-6.83-1.44-3.28-1.36-5.95-3.51-8.01-6.4-1.74-2.45-2.88-5.16-3.25-8.17-.12-1-.19-1.98-.19-2.99,0-17.78,0-35.56.02-53.34,0-3.01.81-5.86,2.24-8.52.56-1.05,1.17-2.07,1.93-2.98,1.05-1.24,2.21-2.37,3.54-3.34,2.15-1.56,4.53-2.58,7.1-3.16,1.25-.28,2.52-.44,3.81-.44,17.79,0,35.59,0,53.38,0,1.42,0,2.79.24,4.18.47,1.26.21,2.4.75,3.57,1.19.77.29,1.47.8,2.18,1.23,2.07,1.25,3.85,2.83,5.25,4.8,1.07,1.5,1.97,3.09,2.54,4.88.37,1.16.57,2.35.83,3.53.32,1.4.2,2.8.2,4.21-.02,4.93,0,9.85,0,14.78,0,2.57-.05,5.14-.01,7.71.15,9.55.02,19.1.07,28.64,0,1.46-.11,2.91-.37,4.35-.38,2.06-1.16,3.98-2.21,5.76-1.18,2-2.69,3.75-4.53,5.21-.75.59-1.51,1.18-2.32,1.62-1.9,1.04-3.95,1.72-6.1,2.12-1.5.28-2.99.28-4.5-.03h-25.49v.38h-.14Zm-25.12-32.54v.07c-.1.05-.1.1,0,.15v.24c-.1.05-.1.1,0,.15v.24c-.1.05-.1.1,0,.14v.24c-.1.05-.1.1-.05.14,0,.08,0,.16,0,.24-.07.17-.07.34,0,.52,0,.11,0,.23,0,.34-.06.23-.07.47,0,.7,0,.08,0,.16.01.24l-.02.03.03.03c.01.21.03.41.03.62-.03,1.74.1,3.48-.1,5.21-.22,0-.44.02-.67.02-1.58,0-3.17,0-4.76,0-.74,0-.86.13-.87.85,0,.57-.02,1.14-.02,1.71,0,0-.02.02-.02.02,0,.02.02.04-.06.06v.3c.08,0,.06.02.06.02,0,.02.02.04-.06.06v.3c.08,0,.06.02.06.02,0,.02.02.04-.06.06v.3c.08,0,.06.02.06.02,0,.02.02.04-.06.06v.3c.08,0,.06.02.06.02,0,.02.02.04-.06.06v.21c.02.06.02.11.09.17.03.33.04.65-.02.98-.02.02-.02.05,0,.07.03.36.13.68.52.8.21.25.41.52.65.75,3.03,3.04,6.06,6.07,9.09,9.11.12.12.23.26.36.38,1.1,1.09,2,2.37,3.24,3.33.29.22.63.44.78.87-.15.01-.23.02-.3.02-2.83,0-5.65.02-8.48-.02-.59,0-1.19-.05-1.79-.17-.69-.14-1.41-.16-2.1-.37-.6-.18-1.23-.28-1.83-.49-1.2-.4-2.32-.98-3.41-1.62-1.72-1-3.19-2.34-4.61-3.71-.21-.21-.38-.46-.6-.67-.19-.18-.41-.15-.61-.02-.13.09-.26.23-.13.39.35.43.49,1.01.91,1.38.53.46.92,1.04,1.45,1.52.91.82,1.88,1.53,2.91,2.18,1.75,1.12,3.69,1.82,5.65,2.4,1.14.34,2.36.4,3.56.41,2.68.02,5.37.03,8.05-.01.79-.01,1.58-.05,2.37-.1.78.18,1.58.02,2.37.09h40.3c1.26-.07,2.5-.24,3.71-.53,1.97-.47,3.77-1.32,5.53-2.33,1.71-.97,3.07-2.27,4.31-3.74.53-.63,1.01-1.3,1.38-2.04.51-.6.79-1.34,1.12-2.03.88-1.86,1.42-3.83,1.59-5.88.12-1.42.09-2.85.11-4.28.02-1.19-.06-2.38-.07-3.56-.03-7.04-.02-14.07-.02-21.11,0-.11-.03-.24,0-.33.13-.31-.03-.52-.21-.72-.43-.48-.84-.97-1.3-1.43-4.64-4.61-9.26-9.25-13.89-13.87-.34-.34-.58-.76-.96-1.05-.72-.54-1.29-1.22-1.92-1.85-.21-.21-.4-.45-.7-.53-.31-.27-.62-.54-.95-.81-.5-.4-1.11-.43-1.7-.44-2.46-.02-4.91,0-7.37-.01-.76,0-1.52-.01-2.28-.02.03-.2-.1-.32-.23-.44-.9-.9-1.8-1.81-2.71-2.71-.24-.24-.49-.49-.85-.56-.15-.18-.29-.38-.46-.55-.59-.62-1.08-1.37-1.97-1.62-.32-.09-.58-.41-.84-.4-.95.02-1.89-.12-2.84-.09-2.72.08-5.45-.03-8.17.08-1.91.08-3.74,1.58-4.24,3.38-.28,1-.15,2.01-.17,3.01,0,1.54,0,3.07,0,4.6,0,.83,0,1.65,0,2.48,0,.24.01.48-.18.66-.47-.7-.95-1.4-1.91-1.44-.47-.02-.95-.07-1.41-.07-3.3-.03-6.6-.02-9.9,0-1.4,0-2.52.98-2.43,2.55.05,1.03.01,2.06.01,3.09-.07.16-.07.32-.02.48-.01.08-.02.16-.03.25-.08.35.06.69.05,1.03-.02,1.19-.02,2.38-.02,3.56-.05.1-.16.21-.13.29.16.56.03,1.13.09,1.68-.03.06-.03.12.01.18,0,.13.03.25.03.38-.02,4.37.06,8.74-.05,13.1,0,.08,0,.17,0,.26,0,.07.01.14.02.21,0,.19,0,.38,0,.57,0,.34-.06.69.03,1.2h.05Zm69.48-29.42c.13-.19.09-.36.09-.52,0-2.7-.02-5.4.01-8.1.03-2.43-.31-4.78-1.13-7.07-.9-2.55-2.29-4.8-4.15-6.74-1.25-1.31-2.74-2.32-4.38-3.13-1.21-.6-2.43-1.14-3.74-1.47-1.54-.39-3.09-.68-4.67-.68-16.9-.01-33.8,0-50.71,0-.87,0-1.74,0-2.61.07-1.83.14-3.59.51-5.3,1.17-2.88,1.1-5.39,2.73-7.38,5.11-2.46,2.94-3.82,6.34-4.19,10.15-.04.43,0,.88,0,1.31.1-.3.07-.6.11-.9.32-2.15,1.03-4.17,2.05-6.08,1.4-2.61,3.35-4.74,5.73-6.44,3.12-2.24,6.68-3.23,10.49-3.23,16.46-.02,32.91,0,49.37,0,1.09,0,2.19,0,3.28.06,1.84.1,3.59.48,5.29,1.17,2.27.93,4.31,2.21,6.12,3.86,1.69,1.55,2.97,3.39,3.94,5.48,1.14,2.44,1.67,4.99,1.69,7.66.02,2.61,0,5.21.01,7.82,0,.16-.05.34.09.53h0Z"
              style="fill: #7cb6d8;"/>
        <path d="m73.93,27.95c.31.08.49.31.7.53.63.63,1.2,1.3,1.91,1.84.38.29.62.71.96,1.04,4.61,4.61,9.21,9.22,13.84,13.82.46.46.87.95,1.3,1.43.18.19.34.41.21.72-.04.1,0,.22,0,.33,0,7.01-.01,14.02.02,21.03,0,1.18.08,2.37.07,3.55-.02,1.42.02,2.85-.11,4.26-.18,2.04-.71,4-1.59,5.85-.33.69-.61,1.43-1.11,2.02-.05-.04-.11-.08-.13-.13-.17-.43-.38-.38-.65-.09-.25.26-.56.48-.78.76-1.12,1.45-2.46,2.65-3.97,3.68-3.11,2.14-6.6,3.15-10.33,3.16-13.7.04-27.4.02-41.11.02-.16,0-.33.02-.47-.04-.27-.1-.48-.02-.69.12.2.41.64.6.76,1.03-.79.05-1.57.08-2.36.1-2.67.05-5.35.03-8.02.01-1.19,0-2.41-.07-3.55-.4-1.96-.58-3.89-1.28-5.63-2.39-1.02-.65-1.99-1.36-2.89-2.17-.53-.47-.92-1.05-1.45-1.51-.42-.37-.56-.95-.9-1.37-.13-.16,0-.31.13-.39.2-.13.42-.17.61.02.22.21.39.47.6.67,1.41,1.37,2.87,2.7,4.59,3.7,1.09.63,2.19,1.21,3.39,1.61.6.2,1.22.3,1.82.48.69.21,1.4.22,2.09.37.59.12,1.19.16,1.78.17,2.81.04,5.63.02,8.45.02.08,0,.16-.01.3-.02-.15-.42-.49-.64-.78-.86-1.24-.96-2.14-2.23-3.23-3.32-.12-.12-.23-.26-.35-.38-3.02-3.02-6.04-6.04-9.05-9.07-.23-.23-.43-.5-.64-.75.38,0,.76-.02,1.14-.02h60.7c.85,0,.95-.1.95-.96v-4.37c0-.91-.12-1.02-1.05-1.03-1.74,0-3.48-.02-5.22-.02,0-2.09-.02-4.18-.02-6.27.15-1.61.12-3.22,0-4.83,0-.08.02-.16.02-.24,0-4.71,0-9.42,0-14.13,0-2.56,0-5.12-.01-7.68.14-1.61.12-3.22,0-4.83,0-1.24.03-2.48-.03-3.72-.02-.43-.21-.87-.16-1.32h0Z"
              style="fill: #5f8aa5;"/>
        <path d="m38.87,34.26c.19-.18.18-.42.18-.66,0-.83,0-1.65,0-2.48.09,0,.19,0,.28,0,.03.05.06.05.1,0,.08,0,.16-.01.24-.01,5.37,0,10.74,0,16.11,0,.16,0,.32.02.48.02.31.38.67.08,1.04-.22l.87.4c0,.44.02.87.03,1.31v4.95s-.01.06-.01.1c0,7.34,0,14.69,0,22.03h-.02c-.38,0-.76.01-1.14.01h-17.96l-.03-.02c.02-.32.09-.58-.51-1.27-3.19-3.66-3.32-9.11-.09-12.73.81-.91.62-1.33.5-1.82.07-.11.11-.22.11-.35v-4.16c0-.16-.03-.28-.18-.35.17-.25.19-.53.19-.83-.01-.9,0-1.8,0-2.69,0-.42-.07-.83-.18-1.24h0Z"
              style="fill: #495572;"/>
        <path d="m74.17,70.92c1.75,0,3.49.02,5.24.02.93,0,1,1.03,1,1.03v4.39c0,.87-.1.96-.95.96H18.5c-.38,0-.76.02-1.14.02-.39-.12-.49-.44-.52-.8.02-.02.02-.05,0-.07.06-.33.05-.65.02-.98v-.39c.1-.03.1-.05,0-.08v-.3c.1-.03.1-.05,0-.08v-.3c.1-.03.1-.05,0-.08v-.3c.1-.03.1-.05,0-.08v-.3c.1-.03.1-.05.08-.08,0-.57.02-1.14.02-1.71.01-.73.12-.85.87-.85,1.58,0,3.17,0,4.76,0,.22,0,.44,0,.67-.12h15.92c.13.1.38.38.38.38h15.7s2-.28,3-.29c.25,0,.51.02.76-.09h13.43c.58.11,1.16.29,1.73.09h0Z"
              style="fill: #e08d4b;"/>
        <path d="m39.07,43.94c.05.2.11.39.11.6,0,5,0,9.99,0,14.99,0,.08,0,.16-.01.24-5.1,0-10.19,0-15.28.01-.2,0-.41-.04-.6.09,0-.07-.01-.14-.02-.21.08-.08.08-.17,0-.26.11-4.37.03-8.74.05-13.1,0-.13-.02-.25-.03-.38.03-.02.1-.03.1-.06.01-.08-.06-.1-.11-.12-.05-.56.07-1.13-.09-1.68-.02-.08.08-.19.13-.29.08.24.28.17.44.17,5.1,0,10.19,0,15.29,0Z"
              style="fill: #c84655;"/>
        <path d="m39.06,26.58c.02-1.01-.1-2.01.17-3.01.5-1.8,2.34-3.31,4.24-3.38,2.73-.11,5.45,0,8.17-.08.95-.03,1.89.11,2.84.09.26,0,.52.31.84.4.89.25,1.38,1,1.97,1.62.16.17.3.36.46.55.13.64.29,1.28.33,1.94.03.59.13,1.19-.06,1.78-5.86,0-11.72,0-17.58.02-.46,0-.92-.02-1.37.08h0Z"
              style="fill: #495572;"/>
        <path d="m92.85,32.21c-.13-.19-.09-.37-.09-.53,0-2.61.01-5.21-.01-7.82-.02-2.67-.55-5.22-1.69-7.66-.97-2.09-2.26-3.93-3.94-5.48-1.8-1.65-3.85-2.94-6.12-3.86-1.7-.69-3.45-1.08-5.29-1.17-1.09-.06-2.19-.06-3.28-.06-16.46,0-32.91-.02-49.37,0-3.81,0-7.37,1-10.49,3.23-2.38,1.71-4.34,3.84-5.73,6.44-1.03,1.91-1.73,3.94-2.05,6.08-.04.29,0,.6-.11.9,0-.44-.03-.88,0-1.31.37-3.81,1.73-7.21,4.19-10.15,1.99-2.38,4.51-4.01,7.38-5.11,1.71-.65,3.48-1.03,5.3-1.17.87-.07,1.74-.07,2.61-.07,16.9,0,33.8,0,50.71,0,1.58,0,3.14.29,4.67.68,1.31.34,2.53.88,3.74,1.47,1.63.81,3.13,1.83,4.38,3.13,1.86,1.94,3.25,4.19,4.15,6.74.82,2.29,1.16,4.64,1.13,7.07-.04,2.7,0,5.4-.01,8.1,0,.16.05.34-.09.52h0Z"
              style="fill: #bcd9ea;"/>
        <path d="m39.17,70.93c-5.31,0-10.61,0-15.92,0,.2-1.73.08-3.48.1-5.21,0-.21-.02-.41-.03-.62.01-.02,0-.04,0-.06,0-.08,0-.16-.01-.24.02-.05.03-.11.05-.16,5.27.06,10.55-.08,15.82.07l.02.02c0,2.06-.01,4.13-.02,6.19h0Z"
              style="fill: #c84655;"/>
        <path d="m39,34.19c.1.41.18.82.18,1.24.01.9,0,1.8,0,2.69,0,.3-.02.57-.19.83-.12.15-.29.1-.44.1h-15.25s.01-.08.02-.12l.03-.58c0-1.04.04-2.07-.01-3.11-.08-1.56,1.03-2.54,2.43-2.55,3.3-.02,6.6-.02,9.9,0,.47,0,.94.05,1.41.07.96.03,1.44.74,1.91,1.44Z"
              style="fill: #c84655;"/>
        <path d="m58.26,32.71c-.01-.51-.02-1.01-.03-1.52.05-1.11-.08-2.23.21-3.32.51-.97,1.33-1.4,2.41-1.36.27,0,.54-.02.81-.02.76,0,1.52.02,2.28.02,2.46,0,4.91,0,7.37.01.59,0,1.2.03,1.7.44.32.26.63.54.95.81-.05.46.14.89.16,1.32.06,1.24.02,2.49.03,3.73-4,0-8,0-12,0-1.3,0-2.6.1-3.89-.09h0Z"
              style="fill: #e0e2cc;"/>
        <path d="m58.45,27.95c-.3,1.09-.17,2.21-.21,3.32l-1.02.3c-.26-.42-.58-.3-.88-.27-.16,0-.32-.02-.47-.02-5.35,0-10.7,0-16.06,0-.08,0-.16,0-.24.01-.03,0-.07,0-.1,0-.09,0-.19,0-.28,0,0-1.54,0-3.07,0-4.6.45-.1.91-.08,1.37-.08,5.86,0,11.72-.01,17.58-.02.16.28.08.59.1.88,0,.2,0,.38.21.49h0Z"
              style="fill: #76caa8;"/>
        <path d="m39.23,64.7c-5.27-.15-10.55-.01-15.82-.07-.02-.22-.04-.44-.06-.67l.03-.25c.04-.16.03-.31-.01-.47,0-.08,0-.16,0-.24v-1.53c.04-.41.12-.83-.13-1.22l.07-.36c.39-.29.9.18,1.22-.51,4.28-1,6.38-1.49,10.67-2.48l4.06,2.9c0,1.64-.02,3.28-.02,4.92h0Z"
              style="fill: #e08d4b;"/>
        <path d="m23.75,39.43h14.71c.15,0,.31.05.43-.09.14.07.18.18.18.34v4.01c0,.13-.04.24-.11.34-4.92,0-9.83,0-14.75,0-.16,0-.35.07-.43-.16,0-1.15,0-2.29.02-3.44,0-.34-.13-.66-.05-1h0Z"
              style="fill: #e08d4b;"/>
        <path d="m32.62,93c-.11-.44-.56-.63-.76-1.04.21-.14.42-.22.7-.12.14.05.31.04.47.04,13.75,0,27.51.03,41.27-.02,3.74-.01,7.24-1.03,10.37-3.17,1.51-1.04,2.86-2.24,3.99-3.7.22-.29.53-.5.78-.76.28-.29.49-.34.65.09.02.05.08.09.13.13-.37.74-.85,1.42-1.38,2.04-1.23,1.47-2.6,2.77-4.31,3.74-1.76,1-3.56,1.86-5.53,2.33-1.22.29-2.45.46-3.71.46h-40.3c-.79,0-1.58.15-2.37-.02h0Z"
              style="fill: #4c6f84;"/>
        <path d="m58.45,27.86c-.21-.1-.2-.29-.21-.49-.01-.29.07-.6-.1-.88.18-.59.09-1.18.06-1.78-.04-.66-.2-1.3-.33-1.94.36.06.61.32.85.56.91.9,1.81,1.81,2.71,2.71.12.12.26.24.23.44-.27,0-.54.03-.81.02-1.08-.03-1.9.39-2.41,1.36h0Z"
              style="fill: #5f8aa5;"/>
        <path d="m23.27,60.44c.13.34.07.68.03,1.03-.1-.34-.04-.68-.03-1.03Z" style="fill: #76caa8;"/>
        <path d="m23.3,63.93c.02.18.03.36.05.54-.02.05-.03.11-.05.16-.07-.23-.07-.47,0-.7h0Z" style="fill: #76caa8;"/>
        <path d="m23.31,63.24c.05.17.05.34,0,.52-.07-.17-.07-.34,0-.52Z" style="fill: #76caa8;"/>
        <path d="m23.35,38.46c0,.16-.01.32-.02.48-.05-.16-.06-.32.02-.48Z" style="fill: #e08d4b;"/>
        <path d="m23.29,45.75c.06.02.13.04.11.12,0,.02-.07.04-.1.06-.05-.06-.04-.11-.01-.18Z" style="fill: #5f8aa5;"/>
        <path d="m23.27,59.41c.08.09.07.17,0,.26,0-.08,0-.17,0-.26Z" style="fill: #5f8aa5;"/>
        <path d="m23.36,62.86v.14s-.05-.1,0-.14Z" style="fill: #76caa8;"/>
        <path d="m23.36,62.47v.14s-.04-.1,0-.14Z" style="fill: #76caa8;"/>
        <path d="m23.36,62.09v.15s-.05-.1,0-.15Z" style="fill: #76caa8;"/>
        <path d="m23.36,61.71v.15s-.05-.1,0-.15Z" style="fill: #76caa8;"/>
        <path d="m16.86,75.33v.17c-.07-.06-.07-.11,0-.17Z" style="fill: #76caa8;"/>
        <path d="m23.36,65.04s.02.04,0,.06l-.03-.03.02-.03h0Z" style="fill: #76caa8;"/>
        <path d="m16.93,73.52s.02.05,0,.08c0-.02-.02-.04-.02-.06,0,0,.02-.02.02-.02h0Z" style="fill: #76caa8;"/>
        <path d="m16.93,73.9s.02.05,0,.08c0-.02-.02-.04-.02-.06,0,0,.02-.02.02-.02h0Z" style="fill: #76caa8;"/>
        <path d="m16.93,74.28s.02.05,0,.08c0-.02-.02-.04-.02-.06,0,0,.02-.02.02-.02h0Z" style="fill: #76caa8;"/>
        <path d="m16.93,74.66s.02.05,0,.08c0-.02-.02-.04-.02-.06,0,0,.02-.02.02-.02h0Z" style="fill: #76caa8;"/>
        <path d="m16.93,75.04s.02.05,0,.08c0-.02-.02-.04-.02-.06,0,0,.02-.02.02-.02h0Z" style="fill: #76caa8;"/>
        <path d="m16.92,76.48s.02.05,0,.07c-.02-.02-.02-.05,0-.07Z" style="fill: #76caa8;"/>
        <path d="m58.2,59.78c0-7.34,0-14.69,0-22.03,0-.03,0-.06.01-.1.3.03.59-.1.89-.1,4.54.01,9.08,0,13.62,0,.46,0,.92-.03,1.37.08,0,2.57.01,5.14.01,7.71,0,4.73,0,9.46,0,14.18l-.22.25c-.18.03-.36.08-.54.08-3.42,0-6.84,0-10.27-.01-1.63,0-3.26.11-4.88-.08h0Z"
              style="fill: #e0e2cc;"/>
        <path d="m74.12,70.8c-.57.21-1.16.02-1.73.02h-13.43c-.25,0-.51,0-.76-.02,0-2.06,0-4.13,0-6.19.85-.15,1.7-.09,2.56-.09,4.44,0,8.89,0,13.33-.01,0,2.1.02,4.19.02,6.29h0Z" style="fill: #e0e2cc;"/>
        <path d="m74.14,64.63c-4.44,0-8.89,0-13.33.01-.85,0-1.71-.07-2.56.09-.01-.03-.02-.05-.03-.08,0-1.63,0-3.25.01-4.88h.02c1.62.2,3.25.08,4.88.09,3.42.02,6.84,0,10.27.01.26,0,.49-.09.75-.1.11,1.62.14,3.23,0,4.85h0Z"
              style="fill: #fefeff;"/>
        <path d="m74.09,37.65c-.45-.11-.91-.08-1.37-.08-4.54,0-9.08,0-13.62,0-.31,0-.59.12-.89.1v-4.95c1.29.18,2.6.08,3.89.09,4,.02,8,0,12,0,.12,1.62.14,3.23,0,4.85h0Z" style="fill: #fefeff;"/>
        <path d="m58.24,60.1c0,1.3,0,2.92-.01,4.55-.1,0-.19,0-.29,0-5.76,0-11.52,0-17.28.01-.49,0-.98-.04-1.46.07l-.02-.02c0-1.64.02-3.28.02-4.99h17.9c.38.07.76.06,1.14.38h0Z" style="fill: #76caa8;"/>
        <path d="m56.33,31.21c.23-.02.46-.09.67.05-.24.15-.47.2-.67-.05Z" style="fill: #4c6f84;"/>
        <path d="m39.46,31.19s.07,0,.1,0c-.03.05-.07.04-.1,0Z" style="fill: #4c6f84;"/>
        <path d="m39.06,64.61c.48-.12.98-.07,1.47-.07,5.78,0,11.57,0,17.35-.01.1,0,.19,0,.29,0,0,.03.02.05.03.08,0,2.06,0,4.13,0,6.19-1,0-2.01,0-3.01.01h-15.76c-.15-.15-.23-.23-.38-.38,0-1.94.01-3.89.02-5.83h0Z"
              style="fill: #495572;"/>
    </g>
    <text transform="translate(123.84 67.67)" style="font-family: MicrosoftYaHei-Bold, &apos;Microsoft YaHei&apos;; font-size: 58.45px; font-weight: 700; letter-spacing: .15em;">
        <tspan x="0" y="0">职工书屋</tspan>
    </text>
</svg>